<svg width="18" height="18" viewBox="0 0 18 18" fill="none" xmlns="http://www.w3.org/2000/svg">
<path d="M16.78 13.7117L13.0538 10.3237C12.8776 10.1636 12.6462 10.0782 12.4082 10.0856C12.1703 10.093 11.9446 10.1925 11.7787 10.3631L9.58509 12.6191C9.05709 12.5182 7.99559 12.1873 6.90293 11.0974C5.81026 10.0038 5.47934 8.93956 5.38126 8.41522L7.63534 6.22072C7.80622 6.05492 7.90588 5.82914 7.91324 5.59116C7.9206 5.35318 7.83507 5.12168 7.67476 4.94564L4.28768 1.22031C4.1273 1.04372 3.9044 0.936602 3.66632 0.921711C3.42823 0.90682 3.19372 0.985326 3.01259 1.14056L1.02343 2.84647C0.864944 3.00553 0.770351 3.21722 0.757592 3.44139C0.743842 3.67056 0.481675 9.09906 4.69101 13.3102C8.36318 16.9815 12.963 17.2501 14.2298 17.2501C14.415 17.2501 14.5287 17.2446 14.5589 17.2427C14.7831 17.2302 14.9946 17.1352 15.1529 16.976L16.8579 14.9859C17.0138 14.8053 17.0929 14.571 17.0783 14.3329C17.0637 14.0949 16.9567 13.8719 16.78 13.7117Z" fill="white"/>
</svg>
