<svg width="18" height="17" viewBox="0 0 18 17" fill="none" xmlns="http://www.w3.org/2000/svg">
<path fill-rule="evenodd" clip-rule="evenodd" d="M17.7365 3.36231L14.8753 0.432813C14.5467 0.0953125 13.8493 0.0953125 13.5218 0.432813V2.47356C11.8912 2.54331 10.056 3.50069 9.06017 4.88556C8.06211 3.50181 6.09729 2.54331 4.46776 2.47356V0.432813C4.13805 0.0953125 3.44176 0.0953125 3.11317 0.432813L0.383875 3.36231C0.225433 3.52543 0.136719 3.7445 0.136719 3.97263C0.136719 4.20075 0.225433 4.41982 0.383875 4.58294L3.11317 7.51131C3.44176 7.84881 4.13805 7.84881 4.46776 7.51131V5.52906C6.03358 5.62806 7.99505 6.94094 7.99505 8.55419V16.8038H10.0906V8.55419C10.0906 6.93981 11.9549 5.62694 13.5218 5.52906V7.51131C13.8493 7.84881 14.5467 7.84881 14.8753 7.51131L17.7365 4.58294C17.8949 4.41982 17.9836 4.20075 17.9836 3.97263C17.9836 3.7445 17.8949 3.52543 17.7365 3.36231Z" fill="white"/>
</svg>
