<svg width="22" height="30" viewBox="0 0 22 30" fill="none" xmlns="http://www.w3.org/2000/svg">
<path d="M9.92268 0.75468C9.55117 1.44882 4.54323 10.8171 2.38604 14.8422C2.31128 14.9814 2.31703 15.0821 2.39007 15.2184C4.50355 19.1624 8.78686 27.1631 8.83115 27.2379C8.87543 27.1637 13.1587 19.1624 15.2722 15.2189C15.3453 15.0826 15.3516 14.982 15.2762 14.8428C14.0668 12.5936 12.8654 10.3398 11.656 8.09061C11.5784 7.94683 11.5732 7.83929 11.6537 7.69437C11.9861 7.09512 12.3047 6.48839 12.6417 5.85923C12.6895 5.94032 15.8945 11.923 17.4662 14.8543C17.5324 14.9774 17.5381 15.0694 17.4702 15.1965C14.983 19.8381 12.4997 24.482 10.0193 29.1276C9.95316 29.2519 9.88587 29.3082 9.7352 29.3059C9.12099 29.2956 8.50622 29.2984 7.89201 29.3042C7.77814 29.3053 7.71776 29.2691 7.66428 29.1679C5.17123 24.4993 2.67589 19.8318 0.177672 15.166C0.125914 15.0688 0.121313 14.9964 0.174797 14.8957C2.67359 10.2288 5.16836 5.56134 7.66715 0.895579C7.69878 0.836919 7.77297 0.761581 7.82818 0.761006C8.51369 0.75123 9.19921 0.75468 9.92268 0.75468Z" fill="black"/>
<path d="M12.7637 3.6129C11.6204 5.74363 8.46889 11.6303 6.75108 14.8365C6.67804 14.9734 6.67286 15.074 6.74763 15.2126C7.95705 17.4624 9.15843 19.7156 10.3679 21.9648C10.4455 22.1091 10.4495 22.2161 10.369 22.361C10.0366 22.9603 9.718 23.567 9.38042 24.1967C9.33556 24.1208 6.13112 18.1375 4.55593 15.2005C4.4898 15.0774 4.48462 14.9854 4.55248 14.8583C7.0392 10.2173 9.52247 5.5734 12.0029 0.927773C12.0696 0.802978 12.1374 0.747769 12.287 0.750069C12.9012 0.760421 13.5159 0.757545 14.1301 0.751794C14.2446 0.750644 14.3038 0.788025 14.3579 0.888667C16.8515 5.5573 19.3468 10.2248 21.8451 14.8905C21.8974 14.9877 21.9008 15.0608 21.8474 15.1608C19.3491 19.8266 16.8544 24.4941 14.3556 29.1598C14.3239 29.2185 14.2498 29.2933 14.1946 29.2938C13.509 29.303 12.8235 29.2996 12.1052 29.2996C12.1524 29.2076 17.1626 19.8306 19.6373 15.212C19.712 15.0728 19.7063 14.9722 19.6327 14.8359C17.5192 10.8919 13.2359 2.89115 13.1916 2.81697C13.1835 2.83077 13.0265 3.12234 12.7637 3.6129Z" fill="black"/>
</svg>
